<svg preserveAspectRatio="xMidYMid meet" data-bbox="-12.827 -11.089 1036.827 469.15" viewBox="0 0 1024 458.06" xmlns:xlink="http://www.w3.org/1999/xlink" xmlns="http://www.w3.org/2000/svg" data-type="ugc" role="presentation" aria-hidden="true" aria-labelledby="svgcid-d31h8k-9liuqd"><title id="svgcid-d31h8k-9liuqd"></title>
    <g>
        <defs>
            <radialGradient gradientUnits="userSpaceOnUse" r="215.48" fy="171.34" fx="94.46" cy="171.34" cx="94.46" id="svgcid-quvy1f-6fa3dx">
                <stop stop-color="#4ba8de" offset="0"></stop>
                <stop stop-color="#2d338c" offset="1"></stop>
            </radialGradient>
            <radialGradient xlink:href="#svgcid-quvy1f-6fa3dx" gradientTransform="rotate(-4.2 2192.081 5070.126)" r="42.15" fy="180.62" fx="366.82" cy="180.62" cx="366.82" id="svgcid--7ankk6a4ocmn"></radialGradient>
            <radialGradient xlink:href="#svgcid-quvy1f-6fa3dx" gradientTransform="rotate(-4.2 2192.081 5070.126)" r="18.21" fy="310.91" fx="495.64" cy="310.91" cx="495.64" id="svgcid-jnrv1y-gvnczb"></radialGradient>
            <radialGradient xlink:href="#svgcid-quvy1f-6fa3dx" gradientTransform="rotate(-4.2 2192.081 5070.126)" r="155.72" fy="88.54" fx="431.07" cy="88.54" cx="431.07" id="svgcid-r5nwnbp08mo9"></radialGradient>
            <radialGradient gradientUnits="userSpaceOnUse" gradientTransform="rotate(52.59 40.882 68.291)" r="67.08" fy="46.84" fx="17.64" cy="46.84" cx="17.64" id="svgcid--z3vrif-lfs4dw">
                <stop stop-color="#faad18" offset="0"></stop>
                <stop stop-color="#f9b01c" offset=".21"></stop>
                <stop stop-color="#f9b929" offset=".45"></stop>
                <stop stop-color="#f8c93f" offset=".69"></stop>
                <stop stop-color="#f7df5d" offset=".94"></stop>
                <stop stop-color="#f7e666" offset="1"></stop>
            </radialGradient>
            <radialGradient xlink:href="#svgcid--z3vrif-lfs4dw" gradientTransform="rotate(35.68 112.225 34.074)" r="58.05" fy="12.17" fx="99.56" cy="12.17" cx="99.56" id="svgcid-141hlc-mmnp7i"></radialGradient>
            <radialGradient gradientUnits="userSpaceOnUse" gradientTransform="rotate(22.59 172.954 25.904)" r="38.25" fy="7.43" fx="167.28" cy="7.43" cx="167.28" id="svgcid--mg8yqeredbem">
                <stop stop-color="#faad18" offset="0"></stop>
                <stop stop-color="#f9b624" offset=".23"></stop>
                <stop stop-color="#f8ce45" offset=".65"></stop>
                <stop stop-color="#f7e666" offset="1"></stop>
            </radialGradient>
            <radialGradient gradientUnits="userSpaceOnUse" gradientTransform="rotate(16.53 228.27 39.842)" r="28.5" fy="28.8" fx="225.26" cy="28.8" cx="225.26" id="svgcid--oxkz9lg1bdzq">
                <stop stop-color="#faad18" offset="0"></stop>
                <stop stop-color="#f9b624" offset=".23"></stop>
                <stop stop-color="#f8ce45" offset=".65"></stop>
                <stop stop-color="#f7e666" offset="1"></stop>
            </radialGradient>
            <radialGradient xlink:href="#svgcid--z3vrif-lfs4dw" gradientTransform="rotate(7.97 268.074 60.01)" r="26.73" fy="47.5" fx="267.15" cy="47.5" cx="267.15" id="svgcid-z7v2y1a9xg02"></radialGradient>
            <linearGradient gradientUnits="userSpaceOnUse" gradientTransform="matrix(.10017 .90447 -.99392 .11008 2622.27 1849.39)" y2="2335.89" x2="-2116.41" y1="2335.89" x1="-2181.07" id="svgcid-etcki1-ue8xld">
                <stop stop-color="#94ca63" offset="0"></stop>
                <stop stop-color="#8fc763" offset=".16"></stop>
                <stop stop-color="#82c164" offset=".33"></stop>
                <stop stop-color="#6db566" offset=".51"></stop>
                <stop stop-color="#4fa669" offset=".69"></stop>
                <stop stop-color="#29926c" offset=".87"></stop>
                <stop stop-color="#088170" offset="1"></stop>
            </linearGradient>
            <linearGradient xlink:href="#svgcid-etcki1-ue8xld" gradientTransform="rotate(15.12 1018.118 2590.172)" y2="566.13" x2="-223.74" y1="448.9" x1="-364.17" id="svgcid-hos09o9ghbp"></linearGradient>
            <linearGradient xlink:href="#svgcid-etcki1-ue8xld" gradientTransform="rotate(-4.2 2192.081 5070.126)" y2="319.44" x2="510.8" y1="266.81" x1="445.77" id="svgcid--4n1lks8f6m1s"></linearGradient>
            <linearGradient xlink:href="#svgcid-etcki1-ue8xld" gradientTransform="rotate(-4.2 2192.081 5070.126)" y2="210.3" x2="392.5" y1="210.3" x1="356.08" id="svgcid-7ra0m5p4kbnn"></linearGradient>
        </defs>
        <g>
            <path d="M365.34 262.78c.47 22.48-3.02 45.3-10.83 67.45-2.19 6.26-4.74 12.5-7.66 18.63-3.79 7.98-8.06 15.62-12.77 22.83-18.38 28.29-43.41 50.44-71.99 65.33-.25.1-.52.2-.82.3 7.38-54.18-4.84-90.93-28.26-120.64-11.95-15.19-26.82-28.51-43.51-41.38-20.36-15.77-43.41-30.81-67.15-47.67-1.02-.72-2.02-1.45-3.04-2.19-1.1-.77-2.2-1.55-3.32-2.34 0-.02-.02-.02-.02-.05-.02 0-.07-.03-.07-.05-7.86-4.72-14.87-10.75-20.63-17.89a63.063 63.063 0 0 1-3.59-4.72c-.4-.57-.8-1.15-1.17-1.72a75.556 75.556 0 0 1-5.54-9.93c-.5-1.05-.97-2.12-1.42-3.19-1.25-2.97-2.29-6.04-3.19-9.18l-.6-2.32c-.42-1.75-.8-3.54-1.12-5.34-7.61-43.23 21.28-84.44 64.51-92.03.87-.15 1.75-.3 2.62-.4.1-.05.2-.05.32-.05.27-.05.55-.1.82-.12h.07c32.65-4.52 66.78-.67 99.18 12.67 3.07 1.25 6.14 2.59 9.18 4.04 3.59 1.7 7.08 3.49 10.53 5.39l.02.03c61.74 33.95 98.09 97.69 99.46 164.54Z" fill="url(#svgcid-quvy1f-6fa3dx)"></path>
            <path d="M92.98 198.53c2.71-2.32.14-12.12-1.11-16.69-1.25-4.57 2.78-8.38 3.81-12.53 1.02-4.15-4.18-10.97-8.07-12.56-3.89-1.59-6.45-4.67-5.94-6.74.51-2.07-.81-7.31-2.28-7.15-1.47.16-.37-3.32-3.37 3.06-3 6.39-.54 18.05.45 24.17 1.04 6.44.82 9.42 4.85 16.95 4.03 7.54 5.06 12.22 8.07 12.56 3.01.34 3.59-1.07 3.59-1.07Z" fill="url(#svgcid-etcki1-ue8xld)"></path>
            <path d="M362.02 272.74c-.24-.63-.58-1.21-1-1.7-1.52-1.86-3.99-2.91-4.8-2.39l-.11-.03c-.24 12.17-1.63 12.64-2.02 13.43-.79 1.57-2.7 2.05-3.59 3.57-.97 1.63-.84 3.62-1.65 5.33-.05.13-7.48 10.94-9.08 9.29-1.81-1.86-1.13-5.01-3.38-6.69-1.31-.95-2.6-.71-4.51.86-25.87 21.22-29.01 35.99-29.01 36.12 0 .08 1.29 5.9 5.82 2.1 1.91-1.6 4.67-4.91 11.94-18.21 3.88 6.82 7.97 4.59 10.7 1.49 1.81-1.99 3.12-2.78 4.17-.47.26.6 1.68 3.78 1.84 5.3.94 8.81-5.06 16.5-4.09 25.31.55 4.96 2.47 5.06 3.49 5.12 3.07.16 4.17 1.02 3.2 5.98 1.68-2.07 5.19-6.43 6.43-9.97 1.36-3.93.58-8.08 1.18-12.07.92-6.24 7.21-22.85 7.27-16.76.08 6.9-3.67 13.93-5.22 23.48-.03.08 0 .13.05.13.89 0 10.49-11.18 13.51-25.87 3.67-17.92-.05-40.4-1.13-43.36Zm-31.69-86.17q-11.65-16.05-17.1-17.47-.29.24-1.29 3.15c-.52-.6-8.87-9.5-11.12-9.34-.94 1.31-.05 2.44-2.15 3.25-.26 0-3.49-2.41-4.25-4.35-3.62-9.6-10.18-36.8-21.09-48.48-5.69-6.09-11.52-11.25-16.89-15.32l-.03-.03c-9.97-7.58-18.28-11.36-20.93-10.34.08.13.13.29.21.42 3.2 6.22 9.34 10.55 13.38 16.08.13.18 13.4 18.57 14.17 23.37-.13.13-.34.31-.5.42-1.81-.66-2.78-1.55-5.61-4.14-.11.16-.24.39-.34.55 4.67 9.26 10.34 17.99 14.4 27.54.29.66 2.78 6.22 5.8 3.33 2.34-2.23 6.06.87 9.71 8.11-11.33 5.35 5.22 13.25 5.4 13.33 3.8 1.23 7.5-1.81 11.31-.26 5.06 2.12 8.03 6.82 12.25 9.99-1.63-3.28-2.73-5.43-3.72-7.32 8.5 5.43 14.03 14.3 22.69 19.54.03-.05 1.39-4.2-4.28-12.04Zm-35.96 52.2c-.29-2.39.47-4.77.03-7.19-.32-1.65-1.23-2.52-1.23-2.52-.13-.13-.34-.26-.53-.29-2.31-.13-2.7 1.36-3.3 5.98-.73 5.82-2.2 10.36-6.93 13.59-1.42.97-2.94 1.84-4.35 2.81-5.98 4.12-11.65 8.68-17.52 12.93-2.73 1.97-6.11 2.81-8.55 5.25-.13.11-.29.26-.39.39-1.68 1.84-1.63 4.22-1.57 5.48 4.93-.39 6.79-.53 8.87-1.26 2.57-.89 4.43-3.02 6.93-4.04 1.52-.63 3.15-.89 4.62-1.63.45-.21.58-.29 1.21-.66l20.96-17.57c3.17-3.38 3.38-5.35 3.38-5.72.05-2.02-1.34-3.62-1.6-5.56Zm37.41 29.88c-.05-.71-.11-1.76.37-4.64.73-4.7 3.1-9.05 2.75-13.96-.29-3.72-3.46-5.12-4.43-5.06-.58.05-2.15.24-2.99 3.59-.92 3.65.08 7.4-.66 11.02-.52 2.55-1.65 3.49-2.41 4.12-.94.79-2.07 5.48-2.07 5.51 0 .13 4.7 17.05 5.46 17.71.05.05 5.8 4.7 5.04-9.47-.16-2.96-.89-5.85-1.05-8.81Zm10.73-62.67c-2.02.34-4.09 2.12-2.49 8.63.58 2.28 1.31 4.59 1.89 5.85 1 2.2 2.7 4.01 3.78 6.22 1.29 2.7 1.84 5.69 3.17 8.39.21.39.71 1.36 1.34 1.84 1.13.81 2.2-.26 3.17-3.17.68-2.07-4.93-26.84-10.86-27.75Zm-40.32-11.94q-1.47-2.05-13.4-8.39c4.83 12.09 6.32 16.05 8.47 22.27 1.02 2.94 1.84 5.25 2.6 6.3.63.89 1.26 1.05 2.1.55.24-.13 4.33-3.96 4.54-4.41 2.31-5.17-4.25-16.21-4.3-16.32Zm25.24 40.11q-.29-1.81-12.28-8.5c-.26 5.9-.71 10.18-1.52 17.84-.13 1.44-.5 4.83-.18 6.98.5 3.28 3.72 4.83 5.85 2.81 1.21-1.15 8.71-15.24 8.13-19.12Zm23.37 14.27c-.03-.08-.08-.18-.13-.26-.84-1.78-1.91-3.49-2.78-5.27-1.29-2.57-1.91-5.43-3.51-7.87-.66-.97-1.76-2.62-4.72-2.31-.79.18-.73 3.96.63 7.03 1.23 2.7 4.17 3.99 5.43 6.64 1.36 2.83 1.42 6.06 2.89 8.84.05.05.11.16.13.24q.24.39 3.15 4.22c.42-4.54.55-7.71.55-7.71-1.05-2.34-1.44-3.17-1.63-3.54Zm-14.48-27.33c-1.21-1.97-2.44-3.88-3.62-5.88q-2.75-4.72-2.96-4.98c-.37-.5-1.73-2.18-3.07-2.15-1.34.11-1.6 1.84-1.68 2.41-.42 3.12.16 6.27.05 9.39.42.34.87.71 1.29 1.05q.55-.5 1.21-2.26c.13-.37.55-1.47 1.36-1.21q.58.21 2.96 3.54c.42.58.94 1.1 1.55 1.55 1.08.79 2.31 1.31 3.38 2.07q.26-2.36-.47-3.54Zm9.47 40.87c-.76-.58-1.47-.5-1.71-.5-.34.05-1.05.16-1.89 1.26-1.39 1.84-2.26 3.96-3.52 5.85.45.95 1.6 3.44 2.75 6.03 7.19-.58 7.66-10.13 4.35-12.64Z" fill="url(#svgcid-hos09o9ghbp)"></path>
            <path d="M35.56 368.12c3.22 5.46 10 17.22 7.7 21.08 0 0-.14 1.86-3.42 2.48-.02 0-.02-.02-.02-.02-12.85-15.38-22.73-32.79-29.47-51.27-2.22-6.14-4.1-12.37-5.59-18.7.29.27.66.63 1.2.4 1.65-.68 5.22 5.61 5.41 8.44.19 2.84 4.4 5.96 9.57 6.74 5.17.78 13.9 7.87 14.28 13.53.4 5.66-2.88 11.85.34 17.32Z" fill="url(#svgcid--7ankk6a4ocmn)"></path>
            <path d="M181.8 452.99a170.7 170.7 0 0 1-38.05-1.93c-.09-.03-.17-.04-.26-.07-4-.96.9-3.99 5.75-2.92 3.73.81 10.08-3.22 14.65-.36 2.67 1.67 7.61-.08 8.97 1.67 1.37 1.77 7.63 2.53 7.63 2.53l1.3 1.08Z" fill="url(#svgcid-jnrv1y-gvnczb)"></path>
            <path d="M181.84 453.02s-10.11 5.74-16.37 4.97c-6.24-.77-7.99.6-12.5-1.55-4.38-2.09-5.44-4.38-9.21-5.39-.09-.03-.17-.04-.26-.07-4-.96.9-3.99 5.75-2.92 3.73.81 10.08-3.22 14.65-.36 2.67 1.67 7.61-.08 8.97 1.67 1.37 1.77 7.63 2.53 7.63 2.53l1.3 1.08.04.03Z" fill="url(#svgcid--4n1lks8f6m1s)"></path>
            <path d="M43.26 389.2s-.14 1.86-3.42 2.48c-.12.03-.25.04-.39.06-3.65.52-6.87-4.93-14.28-13.53-7.43-8.6-7.46-13.42-12.2-20.21-4.73-6.79-10.87-21.71-9.79-30.88.72-6.12.99-6.02 1.57-5.47 0 0 .02.02.02.03.29.27.66.63 1.2.4 1.65-.68 5.22 5.61 5.41 8.44.19 2.84 4.4 5.96 9.57 6.74 5.17.78 13.9 7.87 14.28 13.53.4 5.66-2.88 11.85.34 17.32 3.22 5.46 10 17.22 7.7 21.08Z" fill="url(#svgcid-7ra0m5p4kbnn)"></path>
            <path d="M235.1 394.43a84.627 84.627 0 0 1-8 29.37c-.38.88-.82 1.76-1.29 2.61a49.85 49.85 0 0 1-15.48 17.62h-.02c-.11.09-.24.19-.37.27-5.87 4-12.74 6.76-20.24 7.98-.67.1-1.34.2-2.05.27-.27.05-.52.07-.76.09-.79.07-1.55.11-2.33.17-.91.07-1.83.13-2.76.18l-1.3-1.08s-6.26-.76-7.63-2.53c-1.37-1.75-6.3 0-8.97-1.67-4.58-2.86-10.92 1.18-14.65.36-4.85-1.07-9.74 1.96-5.75 2.92.09.03.17.04.26.07-20.07-3.27-39.91-10.22-58.51-21.07a165.2 165.2 0 0 1-16.66-11.04 167.394 167.394 0 0 1-28.74-27.27c3.28-.61 3.42-2.48 3.42-2.48 2.3-3.86-4.48-15.62-7.7-21.08-3.22-5.47.06-11.66-.34-17.32-.38-5.66-9.11-12.75-14.28-13.53-5.17-.78-9.38-3.9-9.57-6.74-.19-2.82-3.76-9.12-5.41-8.44-.54.23-.91-.14-1.2-.4 0-.02-.02-.03-.02-.03a171.575 171.575 0 0 1-3.79-58.13l.03-.31c.11-.86.19-1.75.32-2.64 0-.02 0-.07.03-.12 2.29-15.31 12.18-29.37 27.59-36.56 22.19-10.38 48.01-2.84 60.5 16.69 0 .03.02.05.04.08.37.67.76 1.35 1.18 2.02.06.1.12.2.17.29 14.79 23.91 53.75 45.58 95.32 67.03.03.01.07.03.11.06 31.49 14.95 51.96 47.99 48.85 84.37Z" fill="url(#svgcid-r5nwnbp08mo9)"></path>
            <path transform="rotate(-52.59 40.885 68.294)" fill="url(#svgcid--z3vrif-lfs4dw)" d="M73.61 68.29c0 23.516-14.654 42.58-32.73 42.58-18.076 0-32.73-19.064-32.73-42.58s14.654-42.58 32.73-42.58c18.076 0 32.73 19.064 32.73 42.58z"></path>
            <path transform="rotate(-35.68 112.236 34.081)" fill="url(#svgcid-141hlc-mmnp7i)" d="M139.64 34.07c0 19.838-12.272 35.92-27.41 35.92S84.82 53.908 84.82 34.07 97.092-1.85 112.23-1.85s27.41 16.082 27.41 35.92z"></path>
            <path transform="rotate(-22.59 172.967 25.904)" fill="url(#svgcid--mg8yqeredbem)" d="M193.59 25.91c0 14.752-9.24 26.71-20.64 26.71s-20.64-11.958-20.64-26.71S161.55-.8 172.95-.8s20.64 11.958 20.64 26.71z"></path>
            <path transform="rotate(-16.53 228.259 39.835)" fill="url(#svgcid--oxkz9lg1bdzq)" d="M245 39.82c0 11.35-7.504 20.55-16.76 20.55-9.256 0-16.76-9.2-16.76-20.55 0-11.35 7.504-20.55 16.76-20.55 9.256 0 16.76 9.2 16.76 20.55z"></path>
            <path transform="rotate(-7.97 268.08 60.001)" fill="url(#svgcid-z7v2y1a9xg02)" d="M283.58 60.02c0 10.45-6.957 18.92-15.54 18.92-8.583 0-15.54-8.47-15.54-18.92 0-10.45 6.957-18.92 15.54-18.92 8.583 0 15.54 8.47 15.54 18.92z"></path>
            <path d="M1003.39 398.52c0 .52-.23.8-.67.86-.45.06-1.55.09-3.31.09s-2.95-.05-3.4-.13c-.44-.09-.67-.45-.67-1.08 0-.68.02-1.69.07-3.03.04-1.34.07-2.36.07-3.03 0-2.57-.03-4.4-.09-5.49-.09-1.75-.93-2.62-2.52-2.62-.7 0-1.4.29-2.09.87-.69.58-1.08 1.22-1.15 1.93-.06.62-.09 2.42-.09 5.42 0 .69.02 1.74.07 3.14.05 1.4.07 2.46.07 3.16 0 .49-.22.73-.65.73h-6.77c-.42 0-.63-.3-.63-.9 0-.69.03-1.73.07-3.11.04-1.38.07-2.42.07-3.13 0-.54-.01-1.37-.04-2.47s-.04-1.93-.04-2.49c0-2.1-.81-3.15-2.44-3.15-.65 0-1.36.25-2.12.75-.84.54-1.25 1.12-1.25 1.72 0 1.34 0 3.34.03 6 .01 2.66.02 4.65.02 5.97 0 .37-.05.59-.13.68-.09.09-.32.15-.69.18-.67.06-1.73.09-3.17.09-.94 0-2-.05-3.19-.13-.36-.03-.57-.08-.64-.15s-.1-.29-.1-.66c0-1.17 0-2.93.02-5.28.01-2.34.02-4.1.02-5.28 0-2.41-.18-5.12-.54-8.13-.03-.18-.04-.31-.04-.4 0-.25.1-.42.31-.51.33-.13.94-.24 1.85-.33 1.11-.1 1.78-.17 1.98-.2.15-.03.74-.18 1.77-.46.73-.21 1.31-.31 1.76-.31.28 0 .43.51.45 1.53.01 1.02.07 1.53.18 1.53.15-.06.32-.16.51-.31 1.34-1.03 2.4-1.73 3.17-2.12 1.15-.54 2.39-.82 3.73-.82s2.59.3 3.67.9c1.21.68 1.99 1.62 2.35 2.84.79-1.06 1.88-1.95 3.26-2.67s2.73-1.08 4.04-1.08c1.97 0 3.56.45 4.8 1.34 1.4 1.02 2.1 2.46 2.1 4.34 0 .78-.02 1.95-.07 3.52-.04 1.57-.07 2.74-.07 3.52 0 .93.02 2.32.07 4.18.05 1.86.07 3.25.07 4.18Z" fill="#ffffff"></path>
            <path d="M957.32 388.49c0 3.35-1.04 6.07-3.12 8.16s-4.81 3.13-8.19 3.13-5.97-1.03-8.08-3.09c-2.12-2.06-3.17-4.7-3.17-7.93 0-3.41 1.01-6.18 3.04-8.3 2.02-2.12 4.77-3.19 8.22-3.19s6.09 1.04 8.17 3.12 3.13 4.78 3.13 8.1Zm-7.33 0a4.7 4.7 0 0 0-1.1-3.07c-.73-.89-1.68-1.33-2.83-1.33s-2.15.46-2.91 1.37c-.71.85-1.07 1.87-1.07 3.04s.36 2.21 1.07 3.06c.76.91 1.73 1.37 2.91 1.37s2.12-.46 2.88-1.37c.7-.85 1.05-1.87 1.05-3.06Z" fill="#ffffff"></path>
            <path d="M917.93 384.83s-.47-.12-1.35-.35c-.89-.23-1.61-.35-2.15-.35-1.33 0-2.39.39-3.17 1.18-.79.79-1.18 1.83-1.18 3.14s.43 2.41 1.3 3.19c.86.77 1.98 1.16 3.37 1.16.65 0 1.39-.17 2.21-.5.82-.33 1.21-.5 1.16-.5.26 0 .58.93.98 2.8.34 1.71.51 2.84.51 3.4s-.92 1.04-2.77 1.43c-1.43.31-2.59.46-3.46.46-3.28 0-5.98-1.09-8.11-3.26-2.13-2.18-3.19-4.89-3.19-8.14s1.07-5.93 3.2-8.12c2.14-2.2 4.84-3.29 8.1-3.29 2.22 0 4.17.47 5.85 1.41.39.21.58.4.58.59s-.22 1.06-.67 2.6c-.42 1.48-.69 2.38-.82 2.69s-.26.46-.39.46Z" fill="#ffffff"></path>
            <path d="M879.85 394.5c0 1.46-.51 2.7-1.53 3.73-1.02 1.03-2.26 1.54-3.72 1.54s-2.69-.52-3.71-1.55c-1.01-1.04-1.52-2.27-1.52-3.72s.5-2.67 1.52-3.7 2.25-1.54 3.71-1.54 2.7.51 3.72 1.54 1.53 2.26 1.53 3.7Z" fill="#ffffff"></path>
            <path d="M676.91 248.15c0 .99-.69 1.68-2.07 2.07-1.65.44-6.78.66-15.37.66-7.88 0-12.95-.22-15.21-.66-1.87-.38-3.06-1.62-3.55-3.72-1.87-7.93-3.34-12.17-4.38-12.73-.88-.38-8.27-.58-22.15-.58-9.37 0-14.36.25-14.96.74-.94.88-1.98 3.83-3.14 8.84-1.05 4.57-2.32 7.05-3.8 7.44-1.87.44-8.15.66-18.84.66-8.43 0-12.64-.8-12.64-2.4 0-1.43 6.23-19.03 18.68-52.81 13.5-36.53 20.82-56.61 21.98-60.25.66-2.09 1.43-3.14 2.31-3.14 1.49 0 3.79.14 6.9.41 3.11.28 5.44.42 6.98.42s3.68-.1 6.57-.29c2.89-.19 5.06-.29 6.49-.29 1.05 0 2.01.91 2.89 2.73 2.7 5.79 10.58 25.62 23.63 59.5 13.11 34.11 19.67 51.9 19.67 53.39Zm-58.6-75.29c-1.16 2.42-3.11 7.69-5.87 15.78-2.97 8.6-4.46 13.64-4.46 15.13 0 .99 1.65 1.54 4.96 1.65 1.71.11 4.52.17 8.43.17 3.64 0 5.64-.44 6.03-1.32.11-.28.17-.66.17-1.16 0-1.82-1.27-6.83-3.8-15.04-2.48-7.93-4.3-13-5.45-15.21Z" fill="#ffffff"></path>
            <path d="M833.91 245.59c0 2.35-1.04 3.91-3.08 4.64-1.67.52-6 .83-13.04.83s-11.73-.31-14.91-.83c-1.46-.31-2.45-.57-2.92-.89s-1.04-1.09-1.77-2.35c-4.02-7.4-8.03-14.76-11.99-22.16-6.52-11.89-10.48-18.46-11.73-19.66-4.02 1.46-6.68 2.61-7.98 3.55.05 2.14.05 3.96.05 5.53 0 1.72-.73 2.71-2.24 2.92-2.87.42-8.03.63-15.54.63s-11.89-.21-14.18-.63c-1.62-.37-2.4-1.2-2.4-2.56 0-2.97.05-6.73.21-11.21v-57.05c-.1-4.02-.16-7.46-.16-10.27 0-1.2.63-1.83 1.77-1.83 1.67 0 4.28.1 7.72.26 3.44.16 6 .26 7.72.26s4.38-.1 7.87-.26c3.44-.16 6.05-.26 7.77-.26.94 0 1.41.52 1.41 1.51 0 4.07-.21 10.22-.63 18.46-.42 8.24-.63 14.39-.63 18.46 0 4.75 1.3 7.09 3.86 7.09 6.57 0 11.68-1.77 15.28-5.37 2.71-2.61 5.42-7.46 8.19-14.44 1.77-5.32 4.69-13.19 8.71-23.62.57-1.41 1.83-2.09 3.7-2.09 1.41 0 3.6.1 6.47.26 2.92.16 5.06.26 6.52.26s3.7-.05 6.62-.16c2.97-.1 5.16-.21 6.57-.21s1.98.68 1.98 1.93c0 1.83-1.15 6.26-3.44 13.3-6.83 20.81-14.71 33.84-23.57 39.01-1.83 1.04-2.71 1.93-2.71 2.56.05 0 5.11 8.29 15.23 24.82 10.17 16.58 15.28 26.44 15.28 29.57Z" fill="#ffffff"></path>
            <path d="M574.82 176.59c0 .17-5.12 11.27-15.37 33.3-10.41 22.48-16.37 35.12-17.85 37.93-.49.99-.8 1.54-.91 1.65-.22.28-.74.52-1.57.74-1.38.33-5.29.5-11.73.5-6 0-9.67-.17-10.99-.5-1.11-.28-1.77-.5-1.99-.66s-.58-.69-1.07-1.57c-.33-.61-1.9-4.49-4.71-11.65l-9.01-22.97-9.17 23.22c-.94 2.64-2.48 6.44-4.63 11.4-.55.94-.94 1.5-1.16 1.69s-.86.37-1.9.54c-1.87.33-5.48.5-10.83.5-6.61 0-10.58-.17-11.9-.5-.94-.22-1.71-1.02-2.31-2.4-21.6-44.35-32.4-68.1-32.4-71.24 0-4.41.15-11.01.46-19.79.3-8.79.45-5.06.45-9.46 0-1.82.55-2.73 1.66-2.73 3.14 0 7.89.14 14.25.41 6.36.28 11.14.42 14.34.42 1.27 0 1.9.52 1.9 1.57 0 4.41-.21.73-.62 9.63-.41 8.9-.62 15.55-.62 19.96 0 1.65 2.01 6.91 6.03 15.78 3.64 7.93 6.28 13.3 7.93 16.12.83 1.43 1.38 2.15 1.65 2.15.44 0 1.57-2.65 3.39-7.93 5.17-14.82 7.82-23.58 7.93-26.28.22-5.07.24-11.51.08-19.34-.17-11.29-.25-17.77-.25-19.42 0-1.05.08-1.67.25-1.86.16-.19.77-.37 1.82-.54 2.81-.33 7.65-.5 14.54-.5 10.52 0 15.79.74 15.79 2.23 0 3.69-.14 9.42-.42 17.19-.28 7.55-.38 13.28-.33 17.19v4.21c0 2.81 2.84 11.76 8.51 26.86 1.93 5.24 3.09 7.85 3.47 7.85.28 0 .83-.72 1.65-2.15 1.54-2.7 4.02-8.04 7.44-16.03 3.8-8.7 5.7-13.88 5.7-15.53 0-4.46-.2-11.14-.62-20.04-.41-8.9-.62-26.79-.62-31.2 0-.99.63-1.49 1.9-1.49 3.25 0 8.14-.14 14.67-.42 6.53-.28 11.42-.41 14.67-.41 1.05 0 1.57 1.1 1.57 3.31 0 4.35.15 22.11.46 30.79.3 8.68.45 15.17.45 19.46Z" fill="#ffffff"></path>
            <path d="M761.27 251.63c-4.74 0-10.91-.11-18.52-.33-9.92-.22-16.09-.36-18.51-.41l-24.71-.33c-2.48.05-6.03-.06-10.66-.33-1.6-.28-2.4-1.13-2.4-2.56 0-6 .1-15 .29-26.98.19-11.98.29-20.98.29-26.98 0-6.39-.19-15.96-.58-28.72-.39-12.75-.58-22.33-.58-28.72 0-1.21.83-1.82 2.48-1.82s4.12.08 7.4.25c3.27.17 5.71.25 7.31.25 1.82 0 4.52-.1 8.1-.29 3.58-.19 6.28-.29 8.1-.29.83 0 1.21.52 1.16 1.57l-.08 1.07c-.66 10.36-1.41 25.92-2.23 46.69l-.09 21.82c0 7.05.03 12.2.09 15.46.05.66.11 1.32.16 1.98.06.66.47 1.07 1.24 1.24h2.15c4.96 0 12.39-.26 22.28-.78s17.31-.78 22.27-.78c1.49 0 2.23.63 2.23 1.9 0 9.42-.69 17.55-2.06 24.38-.28 1.43-.86 2.28-1.74 2.56-.28.11-1.41.17-3.39.17Z" fill="#ffffff"></path>
            <path d="M895.47 229.43c0 1.18-.15 2.97-.44 5.36-.3 2.4-.44 4.15-.44 5.27s-.12 1.84-.36 2.15c-.23.32-.88.77-1.95 1.35-5.06 2.79-10.68 4.18-16.85 4.18-11.35 0-17.02-4.34-17.02-13.02 0-2.59.1-6.49.3-11.69.19-5.2.29-9.1.29-11.69 0-1.73-1-2.59-3-2.59h-.77c-.35.04-.61.06-.76.06-1.49 0-2.24-.53-2.24-1.59 0-.63.05-1.59.15-2.88.1-1.3.15-2.26.15-2.89 0-.83-.05-2.08-.15-3.77-.1-1.69-.15-2.95-.15-3.77s1.26-1.22 3.77-1.3c1.41-.04 2.18-.43 2.3-1.18.23-1.49.31-3.85.23-7.07-.16-5.07-.23-7.48-.23-7.25 0-4.55.43-6.83 1.29-6.83 1.06 0 2.57.24 4.54.71 2.24.51 3.79.8 4.65.88 2.01.28 5.03.65 9.08 1.12.98.08 1.47.41 1.47 1 0 1.57-.13 3.95-.38 7.13-.26 3.18-.39 5.58-.39 7.19 0 1.92.57 2.88 1.71 2.88 1.38 0 3.45-.06 6.24-.18s4.89-.18 6.3-.18c.86 0 1.29.3 1.29.88 0 .9-.1 2.26-.3 4.06-.2 1.81-.3 3.16-.3 4.07s.02 2.32.06 4.12c.04 1.81.06 3.18.06 4.12 0 .83-.57 1.24-1.71 1.24-.78 0-2.1-.03-3.95-.09s-3.16-.09-3.95-.09h-4.42c-.59 0-.89.86-.89 2.59v4.18c.04 1.88.06 3.28.06 4.18 0 3.3.37 5.58 1.12 6.83 1.06 1.69 3.14 2.53 6.25 2.53.98 0 2.38-.22 4.21-.68 1.82-.45 3.11-.68 3.86-.68.83 0 1.24.43 1.24 1.3Z" fill="#ffffff"></path>
            <path d="m960.44 203.98-.12 40.64c0 1.38-.55 2.14-1.65 2.3-1.26.16-4.12.23-8.6.23s-7.33-.16-9.01-.47c-1.29-.24-1.95-1.08-1.95-2.53 0-3.38.06-8.46.18-15.25.12-6.79.18-11.88.18-15.25 0-4.6-2.34-6.89-7.01-6.89-1.57 0-3.42.63-5.54 1.88-2.32 1.38-3.47 2.81-3.47 4.3v14.55c0 1.88.04 4.72.12 8.51.08 3.79.12 6.63.12 8.51 0 1.45-.61 2.26-1.83 2.42-1.22.16-4.63.23-10.25.23-3.22 0-5.54-.16-6.95-.47-1.42-.31-2.12-1-2.12-2.06 0-3.1.02-7.76.06-13.99.04-6.22.06-10.89.06-13.99 0-12.84-.14-23.46-.41-31.86-.12-2.95-.22-5.89-.3-8.84-.2-3.42-.55-6.34-1.06-8.78-.12-.51-.18-.88-.18-1.12 0-.59.3-.98.89-1.18 1.21-.35 3-.57 5.36-.65 3.14-.12 4.97-.21 5.48-.29l10.66-1.24c.63 0 .94.41.94 1.24 0 1.26-.08 2.96-.23 5.12-.16 2.51-.23 4.22-.23 5.13-.23 8.87-.36 15.88-.36 21.03 0 .79.2 1.18.59 1.18.08 0 1.08-.69 3-2.06 2.28-1.61 4.46-2.88 6.54-3.83 3.1-1.37 6.11-2.06 9.01-2.06 5.03 0 9.23 1.32 12.61 3.95 3.65 2.83 5.47 6.69 5.47 11.6Z" fill="#ffffff"></path>
            <path d="M1024 214.7c0 3.97-1.28 6.22-3.83 6.77-.43.08-4.5.51-12.19 1.3-4.63.51-11.54 1.12-20.73 1.83.54 2.55 2.22 4.5 5.01 5.83 2.28 1.1 4.87 1.65 7.77 1.65 3.5 0 7.01-.94 10.55-2.83 1.49-.94 2.98-1.89 4.48-2.83.83.39 2.21 2.4 4.15 6.01 1.95 3.61 2.92 5.91 2.92 6.89 0 .28-.3.73-.89 1.35-4.79 5.15-12.23 7.72-22.32 7.72-9.35 0-16.89-2.73-22.62-8.19-5.89-5.54-8.84-12.94-8.84-22.21s2.63-16.43 7.89-22.21c5.42-5.97 12.6-8.95 21.56-8.95 7.54 0 13.94 2.75 19.2 8.25s7.89 12.04 7.89 19.61Zm-20.61-3.59c0-2.43-.87-4.58-2.59-6.42-1.73-1.84-3.79-2.77-6.19-2.77s-4.52 1.04-6.13 3.12c-1.49 1.93-2.24 4.18-2.24 6.77 0 1.06.55 1.59 1.65 1.59 2.9 0 7.42-.45 13.55-1.35 1.29-.2 1.95-.51 1.95-.94Z" fill="#ffffff"></path>
            <path d="M941.67 347.19c0 2.01-.4 5.72-1.19 11.11-.84 5.86-1.59 9.35-2.25 10.48-.57.89-1.34 1.34-2.32 1.34-.42 0-1.12-.07-2.11-.21-3.42-.47-13.41-.7-29.96-.7-3.61 0-8.98-.02-16.11-.07-7.12-.05-12.47-.07-16.03-.07-1.55 0-2.32-.68-2.32-2.04 0-5.25.3-13.14.88-23.66.59-10.53.88-18.41.88-23.66s-.28-15.31-.84-29.89c-.14-3.75-.4-9.35-.78-16.81l-.07-.98c-.1-1.08.49-1.62 1.76-1.62 3.47 0 8.68.1 15.64.28 6.96.19 12.18.28 15.65.28s8.58-.09 15.47-.28c6.89-.19 12.05-.28 15.47-.28 2.44 0 3.84.92 4.22 2.75.23 1.08.6 4.35 1.09 9.81.49 5.46.74 8.78.74 9.95 0 .99-.47 1.48-1.4 1.48-.28 0-.78-.02-1.48-.07-12.47-1.03-23.67-1.55-33.62-1.55-2.48 0-4.01.59-4.57 1.76-.23.56-.35 2.37-.35 5.42s.47 5.3 1.4 6.33c.8.89 2.32 1.34 4.57 1.34.47 0 1.38-.03 2.75-.11 1.36-.07 2.48-.11 3.37-.11 5.91 0 11.89-.16 17.93-.49.52-.05 1.8-.17 3.87-.35 1.59-.19 2.86-.28 3.8-.28 1.12 0 1.69.54 1.69 1.62 0-.98-.42 2.6-1.27 10.76-.38 3.75-.56 7.5-.56 11.25 0 .94-.68 1.41-2.04 1.41l-6.33-.7c-2.67-.28-8.77-.42-18.28-.42h-7.45c-1.92 0-3.05.47-3.38 1.41-.05.23-.07 1.69-.07 4.36 0 3.56.23 5.86.7 6.89.8 1.78 3.8 2.84 9 3.16h10.27c2.48 0 6.18-.22 11.08-.67 4.9-.45 8.57-.67 11-.67 1.03 0 1.55.84 1.55 2.53Z" fill="#ffffff"></path>
            <path d="M1023.34 290.64c0 .94-.51 1.41-1.55 1.41-1.78 0-8.83-.35-21.17-1.05-.28 11.86-.42 20.14-.42 24.82 0 5.53.22 13.85.67 24.97.45 11.11.67 19.43.67 24.96 0 .89-.21 1.46-.63 1.69-.14.09-.8.21-1.97.35-2.81.37-6.94.56-12.38.56-6.05 0-10.29-.19-12.73-.56-1.32-.23-1.97-.96-1.97-2.18 0-5.53.23-13.83.7-24.89s.7-19.36.7-24.89c0-3.66-.19-11.81-.57-24.47-9.38.94-16.85 1.41-22.43 1.41-.75 0-1.12-.23-1.12-.7 0-.61.33-2.41.98-5.41.75-3.28 1.17-5.28 1.27-5.98.14-2.2.3-4.41.49-6.61.33-3.52.89-5.27 1.69-5.27.09 0 .42.03.98.07 7.6.98 18.82 1.48 33.69 1.48 4.22 0 12-.45 23.35-1.34 6.09-.47 9.16-.7 9.21-.7.94 0 1.47.06 1.62.17s.23.58.28 1.37c0 1.26-.05 3.02-.14 5.27-.1 2.49-.14 4.24-.14 5.27 0 1.17.15 2.9.46 5.17.31 2.27.46 3.97.46 5.1Z" fill="#ffffff"></path>
            <path d="M540.75 317.53c0 14.09-3.7 25.5-11.09 34.23-7.91 9.26-18.83 13.89-32.74 13.89-2.33 0-5.84-.13-10.53-.39-4.69-.26-8.19-.39-10.52-.39-2.5 0-3.75 1.08-3.75 3.23 0 2.68.26 6.67.79 11.96.52 5.3.78 9.26.78 11.88 0 1.34-.61 2.01-1.83 2.01-3.55 0-8.88-.1-15.98-.3-7.1-.21-12.43-.31-15.98-.31-1.69 0-2.53-.84-2.53-2.53 0-6.46.1-16.17.31-29.12.2-12.95.3-22.66.3-29.12 0-18.28-.79-37.49-2.36-57.64l-.09-1.22c-.12-1.11.76-1.78 2.62-2.01 4.54-.58 14.55-.87 30.04-.87 9.14 0 17.9.12 26.29.35 13.8.41 24.92 4.74 33.36 13.01 8.62 8.5 12.93 19.62 12.93 33.36Zm-34.85 1.4c0-13.56-6.61-20.35-19.82-20.35-9.31 0-14.21.53-14.67 1.57-.41.76-.61 7.48-.61 20.17 0 1.8.07 4.47.22 7.99.15 3.52.22 6.19.22 7.99 0 1.17 5.24 1.75 15.72 1.75 12.63 0 18.95-6.38 18.95-19.12Z" fill="#ffffff"></path>
            <path d="M632.97 394.81c-5.01 0-11.53-.12-19.56-.35-10.48-.23-17-.38-19.56-.44l-26.11-.35c-2.62.06-6.38-.06-11.27-.35-1.69-.29-2.53-1.19-2.53-2.71 0-6.35.1-15.85.31-28.51.2-12.66.3-22.17.3-28.51 0-6.75-.2-16.87-.61-30.34-.41-13.48-.61-23.59-.61-30.35 0-1.28.87-1.92 2.62-1.92s4.35.09 7.82.26c3.46.17 6.04.26 7.73.26 1.92 0 4.77-.1 8.55-.3 3.79-.21 6.64-.31 8.56-.31.88 0 1.28.55 1.23 1.66l-.09 1.14c-.7 10.95-1.49 27.39-2.36 49.34l-.09 23.05c0 7.45.03 12.9.09 16.33l.18 2.1c.06.7.49 1.14 1.31 1.31h2.27c5.24 0 13.08-.27 23.54-.83 10.45-.55 18.29-.83 23.53-.83 1.58 0 2.36.67 2.36 2.01 0 9.96-.73 18.54-2.18 25.76-.29 1.51-.9 2.42-1.83 2.71-.29.12-1.48.18-3.58.18Z" fill="#ffffff"></path>
            <path d="M847.37 270.8c-3.49 0-8.77.14-15.8.42-7.03.33-12.31.47-15.8.47-1.23 0-1.84 1.04-1.84 3.21 0 6.18.33 15.43.99 27.69.66 12.26 1.04 21.46 1.04 27.6 0 4.53-.42 6.79-1.18 6.79-1.04 0-2.26-.9-3.73-2.69-5.9-7.74-10.28-13.63-13.21-17.64l-25.85-35.43c-2.12-1.32-4.81-2.69-7.74-2.26-5.52.85-12.08-.42-23.21 1.98-.59.13-1.17.26-1.71.4-4.02 1.04-6.78 4.66-6.64 8.81.13 4.01.29 8.48.47 13.38.57 13.35.85 23.35.85 30.05s-.28 15.85-.9 28.54c-.61 12.74-.94 22.22-.94 28.49 0 1.79.85 2.69 2.55 2.69h30.19c1.6 0 2.36-.99 2.36-3.02 0-6.79-.19-16.89-.57-30.43-.38-13.49-.57-23.63-.57-30.38 0-.85.24-1.51.71-1.93.66.38 1.08.71 1.32 1.08 8.21 10.52 14.34 18.49 18.35 23.92 14.67 19.39 24.11 31.89 28.26 37.55 1.46 1.93 2.74 2.88 3.77 2.88 1.51 0 3.77.09 6.84.33 3.02.24 5.28.38 6.79.38 1.41 0 3.49-.05 6.32-.19 2.83-.09 4.95-.19 6.32-.19 1.7 0 2.55-.75 2.55-2.36v-57.55c0-6.7.28-16.65.85-29.95.52-13.3.8-23.3.8-29.96 0-1.79-.57-2.69-1.65-2.69Z" fill="#ffffff"></path>
            <path d="M717.72 386.99c-8.3-18.63-38.49-96.99-45.19-114.49-.8-2.08-2.83-3.35-5.09-3.3-10.85.24-18.87-.52-23.4-1.13a5.275 5.275 0 0 0-5.66 3.4l-30.24 83.07c-.61 1.84.75 3.68 2.64 3.63l25.8-1.08c1.93-.09 3.63-1.27 4.48-2.97.8-1.56 1.89-3.3 3.21-4.01 1.98-1.09 13.96-.42 19.67 0 1.89.09 3.54 1.23 4.34 2.97 2.74 5.9 8.87 20.05 10.09 30.71 1.56 13.82 6.27 9.72 24.34 11.04 5.61.42 9.34.05 11.75-.61 3.07-.9 4.58-4.34 3.25-7.22Zm-54.34-48.07H650.5c-2.45 0-4.34-2.26-3.92-4.72l5.85-32.41c.28-1.46 2.36-1.56 2.74-.09l9.2 35.9c.19.66-.33 1.32-.99 1.32Z" fill="#ffffff"></path>
        </g>
    </g>
</svg>